<svg width="14" height="14" viewBox="0 0 14 14" fill="none" xmlns="http://www.w3.org/2000/svg">
<path d="M0.413 6.706L6.713 0.406C6.965 0.154 7.315 0 7.7 0H12.6C13.37 0 14 0.63 14 1.4V6.3C14 6.685 13.846 7.035 13.587 7.294L7.287 13.594C7.035 13.846 6.685 14 6.3 14C5.915 14 5.565 13.846 5.313 13.587L0.413 8.687C0.154 8.435 0 8.085 0 7.7C0 7.315 0.161 6.958 0.413 6.706ZM11.55 3.5C12.131 3.5 12.6 3.031 12.6 2.45C12.6 1.869 12.131 1.4 11.55 1.4C10.969 1.4 10.5 1.869 10.5 2.45C10.5 3.031 10.969 3.5 11.55 3.5Z" fill="#00AA63"/>
</svg>
