<svg width="50" height="50" viewBox="0 0 50 50" fill="none" xmlns="http://www.w3.org/2000/svg">
<path d="M6.16667 4.16667H43.6667V14.5833H47.8333V4.16667C47.8333 1.875 45.9583 0 43.6667 0H6.16667C3.875 0 2 1.875 2 4.16667V29.1667C2 31.4583 3.875 33.3333 6.16667 33.3333H24.9167V29.1667H6.16667V4.16667Z" fill="black"/>
<path d="M31.1667 16.6666L18.6667 8.33331V25L31.1667 16.6666Z" fill="black"/>
<path d="M47.2292 30.0625C47.2917 29.4583 47.3125 28.8542 47.25 28.2708L49.4792 26.5C49.6875 26.3333 49.7292 26.0625 49.6042 25.8333L47.4583 22.1042C47.3333 21.875 47.0625 21.7917 46.8125 21.875L44.1458 22.9167C43.6667 22.5625 43.1458 22.2708 42.5833 22.0417L42.1667 19.2083C42.125 18.9375 41.9167 18.75 41.6458 18.75H37.3333C37.0833 18.75 36.8542 18.9375 36.8125 19.1875L36.3958 22.0208C35.8542 22.25 35.3333 22.5625 34.8542 22.8958L32.1875 21.8542C31.9375 21.75 31.6667 21.8542 31.5417 22.0833L29.3958 25.8125C29.2708 26.0417 29.3125 26.3125 29.5208 26.4792L31.75 28.2708C31.6875 28.875 31.6667 29.4792 31.7292 30.0625L29.5 31.8333C29.2917 32 29.25 32.2708 29.375 32.5L31.5208 36.2292C31.6458 36.4583 31.9167 36.5417 32.1667 36.4583L34.8125 35.4167C35.2917 35.7708 35.8125 36.0625 36.375 36.2917L36.7917 39.125C36.8333 39.375 37.0417 39.5625 37.3125 39.5625H41.625C41.875 39.5625 42.1042 39.375 42.1458 39.125L42.5625 36.2917C43.1042 36.0625 43.625 35.75 44.1042 35.4167L46.7708 36.4583C47.0208 36.5625 47.2917 36.4583 47.4167 36.2292L49.5625 32.5C49.6875 32.2708 49.6458 32 49.4375 31.8333L47.2292 30.0625ZM39.5 32.2917C37.7708 32.2917 36.375 30.8958 36.375 29.1667C36.375 27.4375 37.7708 26.0417 39.5 26.0417C41.2292 26.0417 42.625 27.4375 42.625 29.1667C42.625 30.8958 41.2292 32.2917 39.5 32.2917Z" fill="black"/>
</svg>
